<mxfile host="app.diagrams.net" agent="Mozilla/5.0 (Windows NT 10.0; Win64; x64) AppleWebKit/537.36 (KHTML, like Gecko) Chrome/136.0.0.0 Safari/537.36 Edg/136.0.0.0" version="27.0.9">
  <diagram name="Page-1" id="Sx4OqHyeJs9MxLYoQ0F-">
    <mxGraphModel dx="946" dy="575" grid="1" gridSize="10" guides="1" tooltips="1" connect="1" arrows="1" fold="1" page="1" pageScale="1" pageWidth="827" pageHeight="1169" math="0" shadow="0">
      <root>
        <mxCell id="0" />
        <mxCell id="1" parent="0" />
        <mxCell id="6iWUnVqqj18yvfjPqO-1-36" value="" style="rounded=0;whiteSpace=wrap;html=1;fillColor=none;movable=1;resizable=1;rotatable=1;deletable=1;editable=1;locked=0;connectable=1;" vertex="1" parent="1">
          <mxGeometry x="20" y="500" width="780" height="490" as="geometry" />
        </mxCell>
        <mxCell id="6iWUnVqqj18yvfjPqO-1-48" value="" style="rounded=0;whiteSpace=wrap;html=1;fillColor=none;" vertex="1" parent="1">
          <mxGeometry x="55" y="740" width="715" height="210" as="geometry" />
        </mxCell>
        <mxCell id="6iWUnVqqj18yvfjPqO-1-1" value="Cashier" style="shape=umlActor;verticalLabelPosition=bottom;verticalAlign=top;html=1;outlineConnect=0;" vertex="1" parent="1">
          <mxGeometry x="100" y="50" width="30" height="60" as="geometry" />
        </mxCell>
        <mxCell id="6iWUnVqqj18yvfjPqO-1-2" value="Cashier Page" style="rounded=0;whiteSpace=wrap;html=1;" vertex="1" parent="1">
          <mxGeometry x="280" y="55" width="110" height="50" as="geometry" />
        </mxCell>
        <mxCell id="6iWUnVqqj18yvfjPqO-1-3" value="Transaction System" style="rounded=0;whiteSpace=wrap;html=1;" vertex="1" parent="1">
          <mxGeometry x="460" y="55" width="110" height="50" as="geometry" />
        </mxCell>
        <mxCell id="6iWUnVqqj18yvfjPqO-1-5" value="" style="endArrow=none;dashed=1;html=1;dashPattern=1 3;strokeWidth=2;rounded=0;exitX=0.128;exitY=1.007;exitDx=0;exitDy=0;exitPerimeter=0;" edge="1" parent="1" source="6iWUnVqqj18yvfjPqO-1-36">
          <mxGeometry width="50" height="50" relative="1" as="geometry">
            <mxPoint x="120" y="1150" as="sourcePoint" />
            <mxPoint x="120" y="140" as="targetPoint" />
          </mxGeometry>
        </mxCell>
        <mxCell id="6iWUnVqqj18yvfjPqO-1-6" value="" style="endArrow=none;dashed=1;html=1;dashPattern=1 3;strokeWidth=2;rounded=0;" edge="1" parent="1" source="6iWUnVqqj18yvfjPqO-1-20">
          <mxGeometry width="50" height="50" relative="1" as="geometry">
            <mxPoint x="335" y="960" as="sourcePoint" />
            <mxPoint x="334.58000000000004" y="105" as="targetPoint" />
          </mxGeometry>
        </mxCell>
        <mxCell id="6iWUnVqqj18yvfjPqO-1-7" value="" style="rounded=0;whiteSpace=wrap;html=1;fillColor=#CCCCCC;" vertex="1" parent="1">
          <mxGeometry x="110" y="160" width="20" height="760" as="geometry" />
        </mxCell>
        <mxCell id="6iWUnVqqj18yvfjPqO-1-9" value="" style="rounded=0;whiteSpace=wrap;html=1;fillColor=#CCCCCC;" vertex="1" parent="1">
          <mxGeometry x="325" y="160" width="20" height="120" as="geometry" />
        </mxCell>
        <mxCell id="6iWUnVqqj18yvfjPqO-1-10" value="" style="endArrow=classic;html=1;rounded=0;exitX=0.95;exitY=0.043;exitDx=0;exitDy=0;entryX=0;entryY=0.25;entryDx=0;entryDy=0;exitPerimeter=0;" edge="1" parent="1" source="6iWUnVqqj18yvfjPqO-1-7" target="6iWUnVqqj18yvfjPqO-1-9">
          <mxGeometry width="50" height="50" relative="1" as="geometry">
            <mxPoint x="140" y="230" as="sourcePoint" />
            <mxPoint x="190" y="180" as="targetPoint" />
          </mxGeometry>
        </mxCell>
        <mxCell id="6iWUnVqqj18yvfjPqO-1-11" value="InputProductIntoCart()" style="edgeLabel;html=1;align=center;verticalAlign=middle;resizable=0;points=[];" vertex="1" connectable="0" parent="6iWUnVqqj18yvfjPqO-1-10">
          <mxGeometry x="-0.012" relative="1" as="geometry">
            <mxPoint as="offset" />
          </mxGeometry>
        </mxCell>
        <mxCell id="6iWUnVqqj18yvfjPqO-1-12" value="" style="endArrow=none;dashed=1;html=1;dashPattern=1 3;strokeWidth=2;rounded=0;entryX=0.531;entryY=0.988;entryDx=0;entryDy=0;entryPerimeter=0;" edge="1" parent="1" source="6iWUnVqqj18yvfjPqO-1-26" target="6iWUnVqqj18yvfjPqO-1-3">
          <mxGeometry width="50" height="50" relative="1" as="geometry">
            <mxPoint x="520" y="960.4" as="sourcePoint" />
            <mxPoint x="520" y="180" as="targetPoint" />
          </mxGeometry>
        </mxCell>
        <mxCell id="6iWUnVqqj18yvfjPqO-1-13" value="" style="rounded=0;whiteSpace=wrap;html=1;fillColor=#CCCCCC;" vertex="1" parent="1">
          <mxGeometry x="510" y="200" width="20" height="60" as="geometry" />
        </mxCell>
        <mxCell id="6iWUnVqqj18yvfjPqO-1-14" value="" style="endArrow=classic;html=1;rounded=0;exitX=1;exitY=0.5;exitDx=0;exitDy=0;entryX=0.036;entryY=0.326;entryDx=0;entryDy=0;entryPerimeter=0;" edge="1" parent="1" source="6iWUnVqqj18yvfjPqO-1-9" target="6iWUnVqqj18yvfjPqO-1-13">
          <mxGeometry width="50" height="50" relative="1" as="geometry">
            <mxPoint x="370" y="270" as="sourcePoint" />
            <mxPoint x="420" y="220" as="targetPoint" />
          </mxGeometry>
        </mxCell>
        <mxCell id="6iWUnVqqj18yvfjPqO-1-15" value="CalculateTotalPrice()" style="edgeLabel;html=1;align=center;verticalAlign=middle;resizable=0;points=[];" vertex="1" connectable="0" parent="6iWUnVqqj18yvfjPqO-1-14">
          <mxGeometry x="0.2551" relative="1" as="geometry">
            <mxPoint x="-19" as="offset" />
          </mxGeometry>
        </mxCell>
        <mxCell id="6iWUnVqqj18yvfjPqO-1-16" value="" style="endArrow=classic;html=1;rounded=0;exitX=-0.107;exitY=0.898;exitDx=0;exitDy=0;exitPerimeter=0;entryX=0.914;entryY=0.792;entryDx=0;entryDy=0;entryPerimeter=0;" edge="1" parent="1" source="6iWUnVqqj18yvfjPqO-1-13" target="6iWUnVqqj18yvfjPqO-1-9">
          <mxGeometry width="50" height="50" relative="1" as="geometry">
            <mxPoint x="380" y="330" as="sourcePoint" />
            <mxPoint x="350" y="254" as="targetPoint" />
          </mxGeometry>
        </mxCell>
        <mxCell id="6iWUnVqqj18yvfjPqO-1-17" value="ReturnTotalPrice()" style="edgeLabel;html=1;align=center;verticalAlign=middle;resizable=0;points=[];" vertex="1" connectable="0" parent="6iWUnVqqj18yvfjPqO-1-16">
          <mxGeometry x="0.1584" y="-1" relative="1" as="geometry">
            <mxPoint x="14" as="offset" />
          </mxGeometry>
        </mxCell>
        <mxCell id="6iWUnVqqj18yvfjPqO-1-18" value="" style="endArrow=classic;html=1;rounded=0;exitX=0;exitY=0.75;exitDx=0;exitDy=0;entryX=1.093;entryY=0.119;entryDx=0;entryDy=0;entryPerimeter=0;" edge="1" parent="1" source="6iWUnVqqj18yvfjPqO-1-9" target="6iWUnVqqj18yvfjPqO-1-7">
          <mxGeometry width="50" height="50" relative="1" as="geometry">
            <mxPoint x="210" y="280" as="sourcePoint" />
            <mxPoint x="260" y="230" as="targetPoint" />
          </mxGeometry>
        </mxCell>
        <mxCell id="6iWUnVqqj18yvfjPqO-1-19" value="DisplayTotalPrice()" style="edgeLabel;html=1;align=center;verticalAlign=middle;resizable=0;points=[];" vertex="1" connectable="0" parent="6iWUnVqqj18yvfjPqO-1-18">
          <mxGeometry x="-0.0292" y="1" relative="1" as="geometry">
            <mxPoint as="offset" />
          </mxGeometry>
        </mxCell>
        <mxCell id="6iWUnVqqj18yvfjPqO-1-21" value="" style="endArrow=none;dashed=1;html=1;dashPattern=1 3;strokeWidth=2;rounded=0;" edge="1" parent="1" target="6iWUnVqqj18yvfjPqO-1-20">
          <mxGeometry width="50" height="50" relative="1" as="geometry">
            <mxPoint x="335" y="990" as="sourcePoint" />
            <mxPoint x="334.58000000000004" y="105" as="targetPoint" />
          </mxGeometry>
        </mxCell>
        <mxCell id="6iWUnVqqj18yvfjPqO-1-20" value="" style="rounded=0;whiteSpace=wrap;html=1;fillColor=#CCCCCC;" vertex="1" parent="1">
          <mxGeometry x="325" y="310" width="20" height="610" as="geometry" />
        </mxCell>
        <mxCell id="6iWUnVqqj18yvfjPqO-1-22" value="" style="endArrow=classic;html=1;rounded=0;exitX=1.179;exitY=0.236;exitDx=0;exitDy=0;exitPerimeter=0;" edge="1" parent="1" source="6iWUnVqqj18yvfjPqO-1-7">
          <mxGeometry width="50" height="50" relative="1" as="geometry">
            <mxPoint x="190" y="370" as="sourcePoint" />
            <mxPoint x="320" y="340" as="targetPoint" />
          </mxGeometry>
        </mxCell>
        <mxCell id="6iWUnVqqj18yvfjPqO-1-23" value="CheckOut(TotalPrice)" style="edgeLabel;html=1;align=center;verticalAlign=middle;resizable=0;points=[];" vertex="1" connectable="0" parent="6iWUnVqqj18yvfjPqO-1-22">
          <mxGeometry x="0.0624" y="1" relative="1" as="geometry">
            <mxPoint as="offset" />
          </mxGeometry>
        </mxCell>
        <mxCell id="6iWUnVqqj18yvfjPqO-1-24" value="Payment System" style="rounded=0;whiteSpace=wrap;html=1;" vertex="1" parent="1">
          <mxGeometry x="670" y="55" width="110" height="50" as="geometry" />
        </mxCell>
        <mxCell id="6iWUnVqqj18yvfjPqO-1-25" value="" style="endArrow=none;dashed=1;html=1;dashPattern=1 3;strokeWidth=2;rounded=0;entryX=0.531;entryY=0.988;entryDx=0;entryDy=0;entryPerimeter=0;" edge="1" parent="1" source="6iWUnVqqj18yvfjPqO-1-30">
          <mxGeometry width="50" height="50" relative="1" as="geometry">
            <mxPoint x="726" y="961.4" as="sourcePoint" />
            <mxPoint x="724" y="105" as="targetPoint" />
          </mxGeometry>
        </mxCell>
        <mxCell id="6iWUnVqqj18yvfjPqO-1-27" value="" style="endArrow=none;dashed=1;html=1;dashPattern=1 3;strokeWidth=2;rounded=0;entryX=0.531;entryY=0.988;entryDx=0;entryDy=0;entryPerimeter=0;" edge="1" parent="1" target="6iWUnVqqj18yvfjPqO-1-26">
          <mxGeometry width="50" height="50" relative="1" as="geometry">
            <mxPoint x="520" y="990" as="sourcePoint" />
            <mxPoint x="518" y="104" as="targetPoint" />
          </mxGeometry>
        </mxCell>
        <mxCell id="6iWUnVqqj18yvfjPqO-1-26" value="" style="rounded=0;whiteSpace=wrap;html=1;fillColor=#CCCCCC;" vertex="1" parent="1">
          <mxGeometry x="510" y="320" width="20" height="610" as="geometry" />
        </mxCell>
        <mxCell id="6iWUnVqqj18yvfjPqO-1-28" value="" style="endArrow=classic;html=1;rounded=0;exitX=1.105;exitY=0.082;exitDx=0;exitDy=0;entryX=-0.076;entryY=0.065;entryDx=0;entryDy=0;exitPerimeter=0;entryPerimeter=0;" edge="1" parent="1" source="6iWUnVqqj18yvfjPqO-1-20" target="6iWUnVqqj18yvfjPqO-1-26">
          <mxGeometry width="50" height="50" relative="1" as="geometry">
            <mxPoint x="370" y="390" as="sourcePoint" />
            <mxPoint x="420" y="340" as="targetPoint" />
          </mxGeometry>
        </mxCell>
        <mxCell id="6iWUnVqqj18yvfjPqO-1-29" value="CheckOut(TotalPrice)" style="edgeLabel;html=1;align=center;verticalAlign=middle;resizable=0;points=[];" vertex="1" connectable="0" parent="6iWUnVqqj18yvfjPqO-1-28">
          <mxGeometry x="0.0788" relative="1" as="geometry">
            <mxPoint as="offset" />
          </mxGeometry>
        </mxCell>
        <mxCell id="6iWUnVqqj18yvfjPqO-1-31" value="" style="endArrow=none;dashed=1;html=1;dashPattern=1 3;strokeWidth=2;rounded=0;entryX=0.531;entryY=0.988;entryDx=0;entryDy=0;entryPerimeter=0;exitX=0.905;exitY=0.998;exitDx=0;exitDy=0;exitPerimeter=0;" edge="1" parent="1" source="6iWUnVqqj18yvfjPqO-1-36" target="6iWUnVqqj18yvfjPqO-1-30">
          <mxGeometry width="50" height="50" relative="1" as="geometry">
            <mxPoint x="726" y="1150" as="sourcePoint" />
            <mxPoint x="724" y="105" as="targetPoint" />
          </mxGeometry>
        </mxCell>
        <mxCell id="6iWUnVqqj18yvfjPqO-1-30" value="" style="rounded=0;whiteSpace=wrap;html=1;fillColor=#CCCCCC;" vertex="1" parent="1">
          <mxGeometry x="715" y="350" width="20" height="130" as="geometry" />
        </mxCell>
        <mxCell id="6iWUnVqqj18yvfjPqO-1-32" value="" style="endArrow=classic;html=1;rounded=0;entryX=0.122;entryY=0.381;entryDx=0;entryDy=0;entryPerimeter=0;exitX=1.097;exitY=0.131;exitDx=0;exitDy=0;exitPerimeter=0;" edge="1" parent="1" source="6iWUnVqqj18yvfjPqO-1-26" target="6iWUnVqqj18yvfjPqO-1-30">
          <mxGeometry width="50" height="50" relative="1" as="geometry">
            <mxPoint x="540" y="400" as="sourcePoint" />
            <mxPoint x="640" y="390" as="targetPoint" />
          </mxGeometry>
        </mxCell>
        <mxCell id="6iWUnVqqj18yvfjPqO-1-33" value="ManagePayment()" style="edgeLabel;html=1;align=center;verticalAlign=middle;resizable=0;points=[];" vertex="1" connectable="0" parent="6iWUnVqqj18yvfjPqO-1-32">
          <mxGeometry x="0.1616" y="-1" relative="1" as="geometry">
            <mxPoint as="offset" />
          </mxGeometry>
        </mxCell>
        <mxCell id="6iWUnVqqj18yvfjPqO-1-34" value="" style="endArrow=classic;html=1;rounded=0;exitX=0;exitY=0.75;exitDx=0;exitDy=0;entryX=1.028;entryY=0.211;entryDx=0;entryDy=0;entryPerimeter=0;" edge="1" parent="1" source="6iWUnVqqj18yvfjPqO-1-30" target="6iWUnVqqj18yvfjPqO-1-26">
          <mxGeometry width="50" height="50" relative="1" as="geometry">
            <mxPoint x="580" y="480" as="sourcePoint" />
            <mxPoint x="530" y="450" as="targetPoint" />
          </mxGeometry>
        </mxCell>
        <mxCell id="6iWUnVqqj18yvfjPqO-1-35" value="ReturnPaymentStatus()" style="edgeLabel;html=1;align=center;verticalAlign=middle;resizable=0;points=[];" vertex="1" connectable="0" parent="6iWUnVqqj18yvfjPqO-1-34">
          <mxGeometry x="-0.0281" y="2" relative="1" as="geometry">
            <mxPoint as="offset" />
          </mxGeometry>
        </mxCell>
        <mxCell id="6iWUnVqqj18yvfjPqO-1-37" value="Alt" style="rounded=0;whiteSpace=wrap;html=1;fillColor=none;" vertex="1" parent="1">
          <mxGeometry x="20" y="500" width="60" height="40" as="geometry" />
        </mxCell>
        <mxCell id="6iWUnVqqj18yvfjPqO-1-38" value="&lt;font style=&quot;font-size: 7px;&quot;&gt;[Transaction Failed]&lt;/font&gt;" style="text;html=1;align=center;verticalAlign=middle;whiteSpace=wrap;rounded=0;" vertex="1" parent="1">
          <mxGeometry x="30" y="550" width="60" height="30" as="geometry" />
        </mxCell>
        <mxCell id="6iWUnVqqj18yvfjPqO-1-39" value="" style="endArrow=classic;html=1;rounded=0;exitX=0.028;exitY=0.4;exitDx=0;exitDy=0;exitPerimeter=0;entryX=0.967;entryY=0.409;entryDx=0;entryDy=0;entryPerimeter=0;" edge="1" parent="1" source="6iWUnVqqj18yvfjPqO-1-26" target="6iWUnVqqj18yvfjPqO-1-20">
          <mxGeometry width="50" height="50" relative="1" as="geometry">
            <mxPoint x="410" y="590" as="sourcePoint" />
            <mxPoint x="460" y="540" as="targetPoint" />
          </mxGeometry>
        </mxCell>
        <mxCell id="6iWUnVqqj18yvfjPqO-1-40" value="DisplayFailedTransaction()" style="edgeLabel;html=1;align=center;verticalAlign=middle;resizable=0;points=[];" vertex="1" connectable="0" parent="6iWUnVqqj18yvfjPqO-1-39">
          <mxGeometry x="-0.087" y="-2" relative="1" as="geometry">
            <mxPoint as="offset" />
          </mxGeometry>
        </mxCell>
        <mxCell id="6iWUnVqqj18yvfjPqO-1-42" value="" style="endArrow=classic;html=1;rounded=0;exitX=0.036;exitY=0.476;exitDx=0;exitDy=0;exitPerimeter=0;entryX=0.967;entryY=0.409;entryDx=0;entryDy=0;entryPerimeter=0;" edge="1" parent="1" source="6iWUnVqqj18yvfjPqO-1-20">
          <mxGeometry width="50" height="50" relative="1" as="geometry">
            <mxPoint x="297" y="601" as="sourcePoint" />
            <mxPoint x="130" y="600" as="targetPoint" />
          </mxGeometry>
        </mxCell>
        <mxCell id="6iWUnVqqj18yvfjPqO-1-43" value="DisplayFailedTransaction()" style="edgeLabel;html=1;align=center;verticalAlign=middle;resizable=0;points=[];" vertex="1" connectable="0" parent="6iWUnVqqj18yvfjPqO-1-42">
          <mxGeometry x="-0.087" y="-2" relative="1" as="geometry">
            <mxPoint as="offset" />
          </mxGeometry>
        </mxCell>
        <mxCell id="6iWUnVqqj18yvfjPqO-1-46" value="" style="endArrow=none;html=1;rounded=0;strokeWidth=2;dashed=1;dashPattern=8 8;" edge="1" parent="1">
          <mxGeometry width="50" height="50" relative="1" as="geometry">
            <mxPoint x="20" y="640" as="sourcePoint" />
            <mxPoint x="800" y="640" as="targetPoint" />
          </mxGeometry>
        </mxCell>
        <mxCell id="6iWUnVqqj18yvfjPqO-1-47" value="&lt;font style=&quot;font-size: 7px;&quot;&gt;[Transaction Success]&lt;/font&gt;" style="text;html=1;align=center;verticalAlign=middle;whiteSpace=wrap;rounded=0;" vertex="1" parent="1">
          <mxGeometry x="30" y="660" width="60" height="30" as="geometry" />
        </mxCell>
        <mxCell id="6iWUnVqqj18yvfjPqO-1-49" value="" style="endArrow=classic;html=1;rounded=0;entryX=1.062;entryY=0.622;entryDx=0;entryDy=0;entryPerimeter=0;" edge="1" parent="1">
          <mxGeometry width="50" height="50" relative="1" as="geometry">
            <mxPoint x="345" y="690" as="sourcePoint" />
            <mxPoint x="346.2399999999998" y="729.4200000000001" as="targetPoint" />
            <Array as="points">
              <mxPoint x="375" y="690" />
              <mxPoint x="375" y="730" />
            </Array>
          </mxGeometry>
        </mxCell>
        <mxCell id="6iWUnVqqj18yvfjPqO-1-50" value="Text" style="edgeLabel;html=1;align=center;verticalAlign=middle;resizable=0;points=[];" vertex="1" connectable="0" parent="6iWUnVqqj18yvfjPqO-1-49">
          <mxGeometry x="-0.022" relative="1" as="geometry">
            <mxPoint as="offset" />
          </mxGeometry>
        </mxCell>
        <mxCell id="6iWUnVqqj18yvfjPqO-1-51" value="CheckMember()" style="edgeLabel;html=1;align=center;verticalAlign=middle;resizable=0;points=[];" vertex="1" connectable="0" parent="6iWUnVqqj18yvfjPqO-1-49">
          <mxGeometry x="0.002" y="4" relative="1" as="geometry">
            <mxPoint x="16" as="offset" />
          </mxGeometry>
        </mxCell>
        <mxCell id="6iWUnVqqj18yvfjPqO-1-52" value="&lt;font style=&quot;font-size: 7px;&quot;&gt;[Customer Is Member]&lt;/font&gt;" style="text;html=1;align=center;verticalAlign=middle;whiteSpace=wrap;rounded=0;" vertex="1" parent="1">
          <mxGeometry x="50" y="780" width="60" height="30" as="geometry" />
        </mxCell>
        <mxCell id="6iWUnVqqj18yvfjPqO-1-53" value="" style="endArrow=classic;html=1;rounded=0;exitX=0.028;exitY=0.4;exitDx=0;exitDy=0;exitPerimeter=0;" edge="1" parent="1">
          <mxGeometry width="50" height="50" relative="1" as="geometry">
            <mxPoint x="507" y="680" as="sourcePoint" />
            <mxPoint x="345" y="680" as="targetPoint" />
          </mxGeometry>
        </mxCell>
        <mxCell id="6iWUnVqqj18yvfjPqO-1-54" value="DisplaySuccestTransaction()" style="edgeLabel;html=1;align=center;verticalAlign=middle;resizable=0;points=[];" vertex="1" connectable="0" parent="6iWUnVqqj18yvfjPqO-1-53">
          <mxGeometry x="-0.087" y="-2" relative="1" as="geometry">
            <mxPoint x="-3" y="-3" as="offset" />
          </mxGeometry>
        </mxCell>
        <mxCell id="6iWUnVqqj18yvfjPqO-1-58" value="Alt" style="rounded=0;whiteSpace=wrap;html=1;fillColor=none;" vertex="1" parent="1">
          <mxGeometry x="55" y="740" width="45" height="40" as="geometry" />
        </mxCell>
        <mxCell id="6iWUnVqqj18yvfjPqO-1-59" value="" style="endArrow=classic;html=1;rounded=0;exitX=0.036;exitY=0.802;exitDx=0;exitDy=0;exitPerimeter=0;entryX=1.097;entryY=0.84;entryDx=0;entryDy=0;entryPerimeter=0;" edge="1" parent="1" source="6iWUnVqqj18yvfjPqO-1-20" target="6iWUnVqqj18yvfjPqO-1-7">
          <mxGeometry width="50" height="50" relative="1" as="geometry">
            <mxPoint x="260" y="800" as="sourcePoint" />
            <mxPoint x="310" y="750" as="targetPoint" />
          </mxGeometry>
        </mxCell>
        <mxCell id="6iWUnVqqj18yvfjPqO-1-60" value="SendTransactionDetailIntoApp()" style="edgeLabel;html=1;align=center;verticalAlign=middle;resizable=0;points=[];" vertex="1" connectable="0" parent="6iWUnVqqj18yvfjPqO-1-59">
          <mxGeometry x="-0.2669" y="1" relative="1" as="geometry">
            <mxPoint x="-25" as="offset" />
          </mxGeometry>
        </mxCell>
        <mxCell id="6iWUnVqqj18yvfjPqO-1-61" value="" style="endArrow=none;html=1;rounded=0;exitX=0;exitY=0.5;exitDx=0;exitDy=0;entryX=1;entryY=0.5;entryDx=0;entryDy=0;strokeWidth=2;dashed=1;dashPattern=8 8;" edge="1" parent="1" source="6iWUnVqqj18yvfjPqO-1-48" target="6iWUnVqqj18yvfjPqO-1-48">
          <mxGeometry width="50" height="50" relative="1" as="geometry">
            <mxPoint x="140" y="870" as="sourcePoint" />
            <mxPoint x="190" y="820" as="targetPoint" />
          </mxGeometry>
        </mxCell>
        <mxCell id="6iWUnVqqj18yvfjPqO-1-62" value="&lt;font style=&quot;font-size: 7px;&quot;&gt;[Customer Is Member]&lt;/font&gt;" style="text;html=1;align=center;verticalAlign=middle;whiteSpace=wrap;rounded=0;" vertex="1" parent="1">
          <mxGeometry x="55" y="850" width="60" height="30" as="geometry" />
        </mxCell>
        <mxCell id="6iWUnVqqj18yvfjPqO-1-63" value="" style="endArrow=classic;html=1;rounded=0;exitX=0.036;exitY=0.802;exitDx=0;exitDy=0;exitPerimeter=0;entryX=1.097;entryY=0.84;entryDx=0;entryDy=0;entryPerimeter=0;" edge="1" parent="1">
          <mxGeometry width="50" height="50" relative="1" as="geometry">
            <mxPoint x="325" y="881" as="sourcePoint" />
            <mxPoint x="131" y="880" as="targetPoint" />
          </mxGeometry>
        </mxCell>
        <mxCell id="6iWUnVqqj18yvfjPqO-1-64" value="PrintReceipt()" style="edgeLabel;html=1;align=center;verticalAlign=middle;resizable=0;points=[];" vertex="1" connectable="0" parent="6iWUnVqqj18yvfjPqO-1-63">
          <mxGeometry x="-0.2669" y="1" relative="1" as="geometry">
            <mxPoint x="-25" as="offset" />
          </mxGeometry>
        </mxCell>
      </root>
    </mxGraphModel>
  </diagram>
</mxfile>
